# xmcd
#
# Track frame offsets: 
#        150
#        21000
#        45112
#        66535
#        87782
#        108110
#        124082
#        143300
#        163782
#        187125
#        207705
#        229942
#        250672
#
# Disc length: 3613 seconds
#
# Revision: 19
# Processed by: cddbd v1.5.2PL0 Copyright (c) Steve Scherf et al.
# Submitted via: ExactAudioCopy v1.3
#
DISCID=ac0e1b0d
DTITLE=德永英明 - VOCALIST
DYEAR=2005
DGENRE=JPop
TTITLE0=時代
TTITLE1=ハナミズキ
TTITLE2=駅
TTITLE3=異邦人
TTITLE4=シルエット ロマンス
TTITLE5=LOVE LOVE LOVE
TTITLE6=秋桜
TTITLE7=涙そうそう
TTITLE8=オリビアを聴きながら
TTITLE9=ダンスはうまく踊れない
TTITLE10=会いたい
TTITLE11=翼をください
TTITLE12=卒業写真
EXTD=YEAR: 2005
EXTT0=
EXTT1=
EXTT2=
EXTT3=
EXTT4=
EXTT5=
EXTT6=
EXTT7=
EXTT8=
EXTT9=
EXTT10=
EXTT11=
EXTT12=
PLAYORDER=
